<svg xmlns="http://www.w3.org/2000/svg" xmlns:xlink="http://www.w3.org/1999/xlink" version="1.1" x="0px" y="0px" viewBox="0 0 64 64" enable-background="new 0 0 64 64" xml:space="preserve" fill="#FFF">
    <path d="M59.588,23.784c0.022-0.789-0.796-1.32-1.509-0.983c-3.05,1.445-6.879,2.318-7.931,2.318c-3.1,0-5.471-1.778-6.774-2.733   c-0.37-0.272-0.871-0.272-1.242,0c-1.303,0.956-3.673,2.734-6.774,2.734c-1.052,0-4.882-0.873-7.931-2.318   c-0.713-0.338-1.531,0.193-1.509,0.983l0.621,12.108c0.371,7.236,3.664,14.011,9.125,18.773c0.766,0.668,1.552,1.337,2.346,2.021   c2.605,2.244,6.88,2.244,9.485,0c0.794-0.684,1.58-1.353,2.346-2.021c5.461-4.762,8.754-11.537,9.125-18.773L59.588,23.784z    M37.208,37.796c-2.333,0-4.225-2.113-4.225-2.113s1.892-2.112,4.225-2.112c2.334,0,4.226,2.112,4.226,2.112   S39.542,37.796,37.208,37.796z M48.036,50.473c-1.748,0-3.17-1.422-3.17-3.169c0-1.32,1.707-4.746,2.23-5.765   c0.181-0.352,0.544-0.574,0.94-0.574c0.396,0,0.759,0.222,0.939,0.574c0.523,1.019,2.23,4.445,2.23,5.765   C51.205,49.051,49.783,50.473,48.036,50.473z M48.828,37.796c-2.334,0-4.226-2.113-4.226-2.113s1.892-2.112,4.226-2.112   c2.333,0,4.225,2.112,4.225,2.112S51.162,37.796,48.828,37.796z"/>
    <path d="M54.374,53.493c-0.396,0-0.759,0.221-0.94,0.574c-0.523,1.019-2.229,4.444-2.229,5.764c0,1.748,1.422,3.169,3.169,3.169   s3.169-1.421,3.169-3.169c0-1.32-1.706-4.745-2.229-5.764C55.132,53.715,54.769,53.493,54.374,53.493z"/>
    <path d="M24.363,53.264c-0.182-0.677-0.739-1.201-1.418-1.335c-0.791-0.156-1.656-0.141-2.582,0.046l-0.044,0.011   c-2.343,0.565-6.364,0.951-7.838-0.305c-0.079-0.066-0.154-0.143-0.223-0.23c-0.277-0.343-0.402-0.792-0.371-1.335   c0.174-0.543,0.803-2.848-0.399-4.589c-0.113-0.168-0.244-0.327-0.403-0.491l-0.054-0.054c-0.075-0.07-0.432-0.45-0.137-1.106   l0.389-0.865l-0.594-0.744c-0.373-0.467-0.583-0.941-0.548-1.238c0.016-0.13,0.075-0.234,0.19-0.338   c0.334-0.295,0.525-0.72,0.525-1.165V39.06c0-0.705-0.476-1.323-1.155-1.504c-0.667-0.18-1.25-0.417-1.685-0.685   c-0.443-0.273-0.732-0.758-0.773-1.296c-0.025-0.33,0.046-0.659,0.206-0.949l3.796-6.871c0.136-0.2,0.986-1.622,0.609-5.466   c-0.013-0.137,0-0.253,0.01-0.346c0.004-0.035,0.007-0.065,0.008-0.079l0.18-1.633l0.011-0.075   c0.866-4.392,3.983-12.203,15.12-15.213h0.079l0.33-0.108c0.019-0.006,0.038-0.014,0.055-0.018l0.227-0.048   c1.827-0.366,3.786-0.56,5.82-0.577h0.176c1.028,0,2.049,0.071,3.03,0.21c1.613,0.263,3.195,0.711,4.704,1.331   c4.035,1.657,7.528,4.478,10.101,8.159c1.199,1.717,2.149,3.557,2.842,5.473c0.535-0.199,1.073-0.419,1.588-0.663   c0.498-0.236,1.019-0.387,1.544-0.47c-2.677-7.889-9.194-14.16-17.593-16.31l-0.05-0.015h-0.009   C35.911,0.758,31.463,0.7,27.163,1.737c-0.147,0.024-0.295,0.06-0.427,0.103l-0.28,0.074c-0.392,0.104-0.791,0.219-1.208,0.349   c-2.917,0.801-5.545,2.023-7.809,3.63c-4.092,2.904-6.871,7.045-8.035,11.965c-0.367,1.349-0.623,2.772-0.739,4.105   c-0.064,0.539-0.053,1.08,0.034,1.656c0.05,0.331,0.073,0.631,0.07,0.918l0,0.024c-0.008,0.906-0.243,1.803-0.681,2.596   l-2.884,5.221c-0.493,0.893-0.767,1.904-0.791,2.925c-0.046,1.971,1.065,3.803,2.793,4.654c-0.075,0.229-0.127,0.465-0.156,0.706   C6.942,41.581,7.187,42.56,7.759,43.5c-0.244,1.159,0.025,2.374,0.732,3.297l0,3.967C8.458,51.71,8.8,52.606,9.453,53.289   c0.273,0.284,0.588,0.519,0.938,0.699c0.018,0.017,0.037,0.033,0.056,0.049l0.018,0.016c1.373,1.168,3.509,1.693,6.352,1.559   c1.969-0.092,3.717-0.479,4.196-0.593c0.22-0.045,0.435-0.072,0.641-0.081l1.596,5.931c0.134,0.499,0.508,0.893,1,1.054   c0.156,0.051,0.316,0.076,0.476,0.076c0.342,0,0.678-0.116,0.954-0.336c0.472-0.379,0.676-1.002,0.518-1.586L24.363,53.264z"/>
</svg>